<?xml version="1.0" encoding="utf-8"?>
<svg version="1.1" id="Layer_1"
	xmlns="http://www.w3.org/2000/svg"
	xmlns:xlink="http://www.w3.org/1999/xlink" x="0px" y="0px" viewBox="0 0 800 600" style="enable-background:new 0 0 800 600;" xml:space="preserve">
	<style type="text/css"> .st0{fill:#626b85;stroke:#626b85;}
	</style>
	<g>
		<g id="svg_15">
			<path id="svg_11" class="st0" d="M414.7,235c-36.4,9.3-61.1,42.4-61.1,82.1c0,27.2,12.8,43.2,34.3,43.4c12.3,0,18.9-3.1,28.8-13.8
			l8.8-9.5v8.2c0,15.4,13.8,19.5,28.8,8.8c9.9-7,6.8-15.8-3.3-9.3c-2.9,1.9-7.2,3.1-9.7,2.7c-3.9-0.6-4.5-1.9-4.1-10.3
			c0-5.3,3.3-22.6,6.8-38.5c3.7-16,6.2-30.4,5.3-32.1c-0.6-1.6-3.3-3.1-6-3.1c-4.5,0-5.1,1.6-11.3,29c-9.1,40.5-16.5,52.2-35.2,54.7
			c-10.1,1.4-19.3-2.1-23.9-9.1c-8-12.3-4.9-42,6.4-61.3c16.2-27.8,48.3-38.3,75.5-25.1c24.5,12.1,24.3-1-0.2-13.8
			C446.8,234.2,425.4,232.3,414.7,235L414.7,235L414.7,235L414.7,235z"/>
			<path id="svg_12" class="st0" d="M543.9,253.9c-9.3,9.5-16.2,25.3-20.2,45.5c-1.9,10.1-3.1,12.5-9.3,16.2
			c-9.1,5.6-12.1,2.9-8.6-7.6c2.1-6.4,2.1-8-0.6-10.7c-4.5-4.7-10.7-0.4-20.2,14.2c-8.6,13.6-9.3,13.4-5.8-2.5
			c2.7-12.8,0.2-17.3-6.2-11.5c-4.7,4.3-9.1,26.3-8,41.3c0.6,8.8,1.2,10.3,5.1,10.9c3.9,0.6,6-2.3,14.8-20.6
			c8-16.2,10.3-19.5,9.5-13.6c-1,6.6-0.4,8,4.1,11.1c4.7,3.1,6,3.1,13.2,0.4l8-3.3l1.4,9.3c0.6,4.9,3.1,10.9,5.3,13.2
			c5.8,5.8,17.7,5.1,27.2-1.4l7.8-5.1l4.1,5.1c3.3,4.3,6,5.3,13,5.3c4.7,0,10.5-1.4,13-3.1c3.7-2.7,4.9-2.7,10.7,0.2
			c8.8,4.3,28.8,4.1,39.7-0.6c8.4-3.7,9.1-3.7,12.5-0.2c5.1,5.3,17.5,4.7,26.5-1.4l7.6-5.1l5.1,5.1c6.2,6.2,18.3,7,25.7,1.6
			c4.1-2.7,5.6-2.9,9.1-0.6c13,8,29.8,5.8,41.3-5.3c7.2-7,9.3-11.9,5.6-14c-0.8-0.6-3.9,1.2-6.6,4.1c-8.8,9.7-22.8,14-30,9.5
			c-8.6-5.6-6.4-24.3,3.9-31.9c8-6,12.8-3.5,11.1,5.8c-1.6,8.6,2.7,10.1,7.8,2.7c4.9-6.8,3.9-13.2-2.3-18.1
			c-14.4-11.3-37.6,7-37.6,29.4c0,6-1,7.6-6.6,10.3c-13.6,6.6-16.5-1.6-8.8-24.3c4.1-12.8,4.7-16.5,2.7-17.7
			c-4.9-3.1-10.9,3.5-15,17.1c-3.3,10.9-5.3,14.2-13,20c-12.1,9.1-19.1,8.2-21.6-2.5c-2.9-11.9,0-16,15-21
			c16.9-5.8,19.3-10.5,4.3-8.6l-10.5,1.2l7.4-7.6c17.5-17.9,25.1-42.4,15-47.7c-14-7.6-31.5,14.8-39.5,50.2
			c-2.1,9.3-4.5,15-7.4,16.9c-4.5,3.3-3.7,10.1,1,8.2c4.7-1.9,3.3,7.8-1.9,12.8c-6.2,5.8-7.6,5.8-7.6-0.8c0-6.2-2.9-12.3-9.1-18.9
			c-2.7-3.1-4.3-7.6-4.3-12.3c0-6.4-0.8-7.8-4.5-8.2c-3.9-0.6-6,2.1-13.2,16.5c-14,28-20.4,34.1-27.8,26.9
			c-3.5-3.7-2.7-11.9,2.7-26.3c5.1-14,5.1-14.8,1.6-16.2c-5.3-2.1-12.8,7.2-15.4,19.5c-2.1,9.3-3.9,12.1-11.3,17.7
			c-15.4,12.1-22.8,8.2-21.2-10.9c0.6-8,0.6-8,14.4-12.1c17.1-4.9,19.5-10.5,4.3-8.6l-9.9,1l8.2-8.8c16-17.1,23-41.1,13.6-46.3
			C556.6,243.6,552.9,245.1,543.9,253.9L543.9,253.9L543.9,253.9L543.9,253.9z M557.3,263.8c0,7.2-5.1,17.1-14,26.7
			c-6,6.4-8.4,8.2-8.6,5.8c0-5.6,7.8-25.3,12.5-31.3C552.1,258.7,557.3,258,557.3,263.8L557.3,263.8z M684.8,264
			c0,6.6-5.3,16.2-14.6,26.5l-8.2,9.3l1.2-8.2c1.4-8.6,7.6-22.4,13-28.4C680.5,258.5,684.8,258.7,684.8,264L684.8,264L684.8,264z
			 M623.3,327.8c2.9,9.5,0.2,14.2-8.2,14.2c-9.7,0-10.7-3.5-4.7-15.6C616.3,314,619.4,314.2,623.3,327.8L623.3,327.8L623.3,327.8z" />
			<path id="svg_13" class="st0" d="M580.3,270.4c-7.2,7.2,2.3,16.9,11.1,10.9c5.1-3.3,5.8-4.7,3.7-10.1
			C593.7,267.3,583.8,266.9,580.3,270.4L580.3,270.4L580.3,270.4L580.3,270.4z"/>
			<path id="svg_14" class="st0" d="M707.8,270.4c-6.2,6.2,0.4,15,9.5,12.5c4.7-1.2,8-9.1,5.6-12.8
			C721,267.1,710.9,267.3,707.8,270.4L707.8,270.4L707.8,270.4L707.8,270.4z"/>
		</g>
		<g id="svg_16">
			<path id="svg_3" class="st0" d="M328.3,131.1c-5,3.8-29.9,35.7-32.6,41.7c-4.2,9.8-5.1,20.8-2.3,30.2c3.7,12.8,6.9,15.7,20.4,18.8
			l11.5,2.6l5.9-3.8c11.1-7.2,19.2-23.2,19.2-37.9c0-3.1-2.5-15.4-5.5-27.6c-5.3-20.9-7.6-25.8-12.5-25.8
			C331.5,129.3,329.7,130.2,328.3,131.1L328.3,131.1L328.3,131.1z M332.2,166.3c1.6,6.1,2.7,14.2,2.7,18c0,7.5-4.2,17.9-8.3,21.2
			c-3,2.3-12.5,1.5-16.1-1.5c-3.3-2.6-4.4-11.9-2.3-19.7c1.7-6.4,17.5-29,20.1-29C329.1,155.3,330.8,160.3,332.2,166.3L332.2,166.3
			L332.2,166.3L332.2,166.3z"/>
			<path id="svg_4" class="st0" d="M194.5,169.6c-43.4,7.6-82.8,26.1-113.4,53.1c-33.4,29.5-54.3,67.6-54.3,98.9
			c0,22,7.5,31.3,25,31.3c8,0,11.1-1.1,21.5-6.6c13.4-7,18.1-7.8,21.8-3.7c4.8,5.2,3.4,11.3-4.2,17.4c-7.6,6.4-11.9,13.9-11.9,21.4
			c0.2,11.4,10.4,24.6,22.9,28.9c4.1,1.5,14.3,2.1,34,2.1c30.6,0,40.1-1.5,67.1-10.2c29.3-9.6,39.1-17.4,30.6-24.3
			c-3.9-3.1-6.4-2.6-22,4.4c-21.7,9.8-49.7,15.6-74.7,15.6c-22.8,0-33.5-2.3-38.4-7.9c-6.1-7-5.1-11,4.5-20.2
			c4.7-4.4,9-9.9,9.7-12.2c1.6-6.3-0.2-17.6-3.6-22c-5.9-7.8-10.9-10.2-21.2-10.2c-8.3,0-10.9,0.8-17.5,4.9
			c-23.1,14.3-32,8.5-27.3-17.9c10.3-60.5,76.4-114.9,155.3-128.2c14.7-2.6,46.5-1.2,60.2,2.4c10.1,2.7,10.4,2.7,13.6,0
			c11.2-10.1-7.5-17.7-45.1-18.6C214.1,167.8,201.8,168.4,194.5,169.6L194.5,169.6L194.5,169.6L194.5,169.6z"/>
			<path id="svg_5" class="st0" d="M233.5,207.2c-3.7,3.7-3.9,7.3-0.6,11.9c4.8,6.7,16.2,2.4,16.2-6.1c0-3.7-5.5-8.9-9.4-8.9
			C238,204.1,235.2,205.5,233.5,207.2L233.5,207.2L233.5,207.2L233.5,207.2z"/>
			<path id="svg_6" class="st0" d="M183.1,208.4c-3.6,3.8-3.3,8.9,0.5,12.5c4.2,4.1,8.6,3.8,12.3-0.9c4.1-5,4.1-7.5,0.2-11.3
			C192.1,204.9,186.4,204.7,183.1,208.4L183.1,208.4z"/>
			<path id="svg_7" class="st0" d="M133.2,229.8c-5.3,5.8-1.4,15.6,6.1,15.6c3.9,0,5.9-1.5,8.3-5.8
			C152,231.1,139.7,222.7,133.2,229.8L133.2,229.8L133.2,229.8z"/>
			<path id="svg_8" class="st0" d="M285.7,246.2c-10.1,10.4-21.2,31.6-25.4,48.7c-4.1,16.3-13.3,135.3-10.9,139.7
			c0.9,1.7,3.6,3.5,5.9,4c2.3,0.5,8.4,2,13.4,3.2c14.7,3.5,13.6,5.3,38.5-61.1c11.9-31.9,22.8-63.4,24.2-70.1
			c3.6-17.1,2.3-40.9-2.7-55.4l-3.7-10.7l-13.3-3.4c-7.3-1.7-14.3-3.4-15.6-3.4C294.9,237.7,290.2,241.5,285.7,246.2L285.7,246.2
			L285.7,246.2L285.7,246.2z M307,255.4c8.1,1.7,10,7.9,10,33.4v21.4l-21.7,57.6c-21.4,56.3-22,57.7-26,57.7c-2.3,0-4.5-0.5-4.8-1.2
			c-0.5-0.6,1.2-27.2,3.7-58.9c5.6-71.6,7.3-79.1,23.7-102.1C298.5,254,298.8,253.9,307,255.4L307,255.4L307,255.4L307,255.4z"/>
			<path id="svg_9" class="st0" d="M92.6,271c-3.6,3.8-3.3,8.9,0.5,12.5c4.2,4.1,8.6,3.8,12.3-0.9c4.1-5,4.1-7.5,0.2-11.3
			C101.7,267.5,95.9,267.3,92.6,271L92.6,271z"/>
			<path id="svg_10" class="st0" d="M160.2,324.9c-10,4.1-15.6,13-15.6,24.7c0,9.5,3.9,16.5,12.3,22c7.3,4.9,21.1,4.9,28.4,0
			c15.6-10.2,16.2-33.6,1.1-44C180.7,323.6,166.7,322.1,160.2,324.9L160.2,324.9z M178.4,341.8c7.5,6.9,2.5,18-8,18
			c-5.8,0-11.9-5.5-11.9-10.7c0-1.5,1.4-4.4,3.3-6.7C165.9,337.4,173.3,337.1,178.4,341.8L178.4,341.8L178.4,341.8L178.4,341.8z"/>
		</g>
	</g>
</svg>
